<?xml version="1.0" encoding="UTF-8"?>
<svg id="Layer_2" data-name="Layer 2" xmlns="http://www.w3.org/2000/svg" viewBox="0 0 163 163">
  <defs>
    <style>
      .cls-1, .cls-2 {
        fill: #fcf5eb;
      }

      .cls-3 {
        fill: #41251d;
      }

      .cls-2, .cls-4 {
        stroke: #7c4d3a;
      }

      .cls-2, .cls-4, .cls-5 {
        stroke-miterlimit: 10;
      }

      .cls-4 {
        fill: #28638f;
      }

      .cls-5 {
        fill: none;
        stroke: #fcf5eb;
      }
    </style>
  </defs>
  <g id="Styleguide_Logos" data-name="Styleguide Logos">
    <g>
      <circle class="cls-2" cx="81.5" cy="81.5" r="81"/>
      <g id="_design_txt_Source_Sans_Variable_18pt" data-name="{design} txt Source Sans Variable 18pt">
        <path class="cls-3" d="m40.57,132.02c1.3-1.14,2.38-1.82,3.58-2.87.7-.61,1.1-1.55.05-2.77l.93-.82c1.08,1.2,2.06.92,2.73.33,1.22-1.08,2.03-2.06,3.33-3.2,1.85-1.63,2.97-1.43,4.22,0l.7.8-.84.74-.41-.47c-.85-.97-1.55-.8-2.7.21-1.08.95-1.94,1.88-3.16,2.95-1.16,1.02-1.98,1.23-2.88.64l-.07.06c.47.97.13,1.78-1,2.78-1.22,1.07-2.24,1.81-3.32,2.76-1.16,1.02-1.41,1.69-.55,2.65l.41.47-.84.74-.7-.8c-1.25-1.42-1.31-2.56.55-4.19Z"/>
        <path class="cls-3" d="m49.85,133.08c2.11-3.11,5.38-3.71,7.57-2.23,1.11.76,1.56,1.67,1.93,2.93l1.04-1.69,2.5-3.69,1.62,1.1-9.53,14.05-1.34-.91.63-1.22-.05-.04c-1.25.24-2.69.17-3.83-.6-2.39-1.62-2.71-4.5-.55-7.69Zm5.18,6.93l3.41-5.02c-.32-1.28-.88-2.05-1.66-2.58-1.53-1.04-3.75-.39-5.23,1.8-1.56,2.3-1.54,4.31.14,5.45.89.6,1.95.69,3.35.36Z"/>
        <path class="cls-3" d="m62.36,140.72c1.04-3.62,4.12-5.15,6.69-4.41,2.84.82,3.86,3.32,2.94,6.5-.11.4-.26.78-.4,1.04l-7.49-2.16c-.54,2.4.46,4.34,2.58,4.95,1.07.31,2.04.21,3.03-.09l.32,1.43c-1.16.36-2.49.53-4.01.1-2.97-.85-4.7-3.7-3.65-7.36Zm8.04,1.33c.64-2.23-.01-3.73-1.75-4.23-1.56-.45-3.32.4-4.18,2.52l5.94,1.71Z"/>
        <path class="cls-3" d="m74.44,148.2l1-1.27c.98.83,1.99,1.42,3.38,1.46,1.52.04,2.29-.75,2.32-1.74.03-1.19-1.32-1.75-2.59-2.26-1.61-.63-3.42-1.48-3.37-3.43.05-1.85,1.57-3.25,4.08-3.19,1.44.04,2.69.66,3.56,1.39l-.97,1.23c-.78-.61-1.59-1.07-2.62-1.1-1.46-.04-2.15.72-2.17,1.61-.03,1.1,1.22,1.55,2.52,2.07,1.65.67,3.5,1.4,3.44,3.6-.05,1.88-1.58,3.4-4.31,3.33-1.64-.04-3.21-.78-4.28-1.71Z"/>
        <path class="cls-3" d="m84.83,134.17c-.11-.76.4-1.34,1.16-1.45.75-.11,1.41.29,1.52,1.06.11.73-.4,1.34-1.16,1.45-.75.11-1.42-.32-1.52-1.06Zm.88,3.56l1.94-.28,1.68,11.46-1.94.28-1.68-11.46Z"/>
        <path class="cls-3" d="m94.92,150.19c-.32-.94-.03-2.03.76-3.03l-.03-.09c-.68-.16-1.3-.6-1.59-1.46-.31-.91.08-1.85.51-2.45l-.03-.09c-.92-.32-1.98-1.15-2.42-2.46-.82-2.4.56-4.55,2.78-5.31.6-.21,1.19-.27,1.64-.26l3.82-1.3.49,1.43-2.25.77c.69.32,1.34,1.02,1.66,1.95.8,2.35-.48,4.41-2.72,5.17-.53.18-1.18.26-1.76.19-.28.47-.46.93-.26,1.53.24.7.86,1.04,2.33.53l2.13-.73c2.55-.87,4.1-.51,4.72,1.31.7,2.04-.86,4.53-4.25,5.68-2.68.92-4.89.5-5.54-1.39Zm3.64-11.77c-.54-1.59-1.91-2.21-3.2-1.77-1.29.44-2,1.75-1.46,3.35.54,1.59,1.95,2.24,3.22,1.81,1.26-.43,1.99-1.8,1.44-3.4Zm4.43,8.38c-.35-1.01-1.23-1.1-2.67-.61l-1.89.65c-.42.14-.95.27-1.48.32-.59.82-.71,1.59-.49,2.22.4,1.18,1.84,1.52,3.83.84,2.09-.71,3.09-2.27,2.7-3.42Z"/>
        <path class="cls-3" d="m102.24,132.69l1.36-.88,1.05,1.31.05-.04c.33-1.51.86-2.89,2.19-3.76,2.04-1.33,3.82-.61,5.43,1.87l4.01,6.15-1.64,1.07-3.87-5.94c-1.18-1.81-2.23-2.23-3.51-1.39-.99.65-1.35,1.6-1.68,3.22l4.58,7.03-1.64,1.07-6.32-9.7Z"/>
        <path class="cls-3" d="m121.55,136.1l.45-.44c.92-.9.72-1.59-.36-2.69-1.01-1.03-1.98-1.84-3.11-2.99-1.06-1.08-1.34-1.91-.8-2.84l-.06-.07c-.94.52-1.75.25-2.83-.85-1.14-1.16-1.93-2.14-2.94-3.17-1.08-1.1-1.76-1.31-2.68-.41l-.45.44-.78-.8.76-.75c1.35-1.32,2.48-1.44,4.21.32,1.21,1.23,1.94,2.28,3.08,3.44.63.64,1.58.99,2.75-.12l.87.88c-1.14,1.14-.81,2.1-.15,2.77,1.12,1.14,2.15,1.89,3.36,3.12,1.73,1.76,1.59,2.89.24,4.22l-.76.75-.78-.8Z"/>
      </g>
      <ellipse id="_1_" data-name="1&amp;quot;" class="cls-4" cx="80.51" cy="81.02" rx="43.12" ry="47.4" transform="translate(-14.81 143.95) rotate(-78.62)"/>
      <g>
        <path class="cls-1" d="m53.3,102.29l.46-.57c.48-.59,1.12-.93,1.92-1.02.8-.09,1.54.09,2.19.54.68.47,1.08,1.08,1.19,1.83.12.74-.06,1.4-.53,1.98l-.46.57c-.48.59-1.12.93-1.92,1.02-.8.1-1.53-.09-2.19-.54-.68-.47-1.08-1.08-1.19-1.83-.11-.74.06-1.4.53-1.98Z"/>
        <path class="cls-1" d="m55.74,107.16c-.75,0-1.44-.22-2.07-.66-.8-.55-1.27-1.28-1.4-2.16-.13-.88.08-1.68.64-2.37l.46-.56c.56-.69,1.32-1.09,2.25-1.2.93-.11,1.78.1,2.54.63.79.55,1.27,1.28,1.4,2.16.14.88-.08,1.68-.64,2.37l-.46.56c-.56.69-1.32,1.09-2.25,1.2-.16.02-.31.03-.47.03Zm.35-5.99c-.12,0-.23,0-.35.02-.67.08-1.2.36-1.59.84l-.46.57c-.38.47-.52.98-.43,1.59.09.61.42,1.1.99,1.49.56.39,1.16.54,1.84.46.68-.08,1.2-.35,1.59-.84l.46-.56c.38-.47.52-.99.43-1.59-.09-.61-.41-1.1-.98-1.49-.46-.32-.95-.48-1.5-.48Z"/>
      </g>
      <g>
        <path class="cls-1" d="m56.67,101.01c1.87-9.89,13.11-16.74,17.43-12.7,1.45,1.35.59,5.21-1.78,5.32-4.45.22-12.68-2.21-15.65,7.37"/>
        <path class="cls-5" d="m56.67,101.01c1.87-9.89,13.11-16.74,17.43-12.7,1.45,1.35.59,5.21-1.78,5.32-4.45.22-12.68-2.21-15.65,7.37"/>
      </g>
      <g>
        <path class="cls-1" d="m55.95,100.92c.48-18.33,18.94-34.99,23.75-27.67,1.61,2.45.03,5.56-2.95,6.15-5.61,1.1-15.63,2.18-20.8,21.52Z"/>
        <path class="cls-5" d="m55.95,100.92c.48-18.33,18.94-34.99,23.75-27.67,1.61,2.45.03,5.56-2.95,6.15-5.61,1.1-15.63,2.18-20.8,21.52,0,0,5.17-19.34,0,0Z"/>
      </g>
      <path class="cls-1" d="m73.76,76.36c4.11.45,10.21.25,10.98-4.89.82,5.78-7.03,6.97-10.98,4.89h0Z"/>
      <path class="cls-1" d="m58.66,101.26c13.63-.61,32.49-6.22,35.58-21.33.93-6.17,2.98-12.57,7.72-16.88,2.19-1.98,4.87-3.45,7.8-3.87,0,0,.29-.04.29-.04,0,0,.07-.01.07-.01,0,.05-.03,0-.05.02h-.14s.14-.03.14-.03c.02.02.06-.04.07.04-.03.01-.05.02-.07.03l-.27.09c-2.67.89-5.07,2.58-6.91,4.68-2.98,3.33-4.62,7.61-5.54,11.93-.32,1.46-.48,3.01-.73,4.5-.59,3.17-1.87,6.27-3.82,8.87-7.45,9.77-22.39,13.45-34.12,12.01h0Z"/>
      <path class="cls-1" d="m107.41,58.45c-21.12-3.51-42.87-1.67-48.99,22.47-1.77,6.54-2.19,13.45-2.24,20.35-.99-6.84-1.13-13.9.35-20.81,5.15-25.44,29.48-28.94,50.89-22.01h0Z"/>
      <g id="hildeguntxt_SourceSansVariable_18pt" data-name="hildeguntxt SourceSansVariable 18pt">
        <path class="cls-3" d="m32.84,31.02l1.55-1.36,3.05,3.5,1.51,1.84c.17-1.54.53-3,1.79-4.1,1.93-1.69,3.84-1.26,5.78.96l4.82,5.53-1.55,1.36-4.66-5.34c-1.42-1.62-2.54-1.87-3.76-.81-.94.82-1.19,1.84-1.34,3.53l5.51,6.32-1.55,1.36-11.16-12.78Z"/>
        <path class="cls-3" d="m46.08,22.91c-.39-.66-.1-1.41.59-1.81s1.48-.29,1.87.37c.38.64.11,1.41-.59,1.81s-1.5.27-1.87-.37Zm2.18,2.95l1.78-1.04,5.87,9.99-1.78,1.04-5.87-9.99Z"/>
        <path class="cls-3" d="m58.23,31l-5.9-13.41,1.88-.83,5.96,13.54c.24.55.59.66.86.54.11-.05.2-.09.39-.23l.86,1.26c-.23.21-.52.43-1.01.65-1.41.62-2.37.02-3.05-1.51Z"/>
        <path class="cls-3" d="m62.18,25.39c-.86-3.66,1.04-6.5,3.75-7.13,1.38-.32,2.4-.04,3.63.53l-.54-1.91-1.02-4.34,2.01-.47,3.87,16.52-1.66.39-.48-1.29-.07.02c-.72,1.09-1.81,2.12-3.22,2.45-2.96.69-5.39-1-6.27-4.76Zm9.02.8l-1.38-5.91c-1.21-.62-2.2-.72-3.17-.5-1.9.44-3,2.53-2.4,5.1.63,2.7,2.19,4.04,4.27,3.55,1.1-.26,1.93-.99,2.68-2.25Z"/>
        <path class="cls-3" d="m76.19,22.54c.02-3.77,2.71-6.08,5.51-6.06,3.11.02,4.85,2.15,4.83,5.46,0,.41-.04.83-.1,1.11l-8.2-.05c.13,2.46,1.7,4.06,4.03,4.07,1.17,0,2.13-.35,3.04-.91l.73,1.29c-1.07.66-2.37,1.19-4.03,1.18-3.25-.02-5.82-2.29-5.8-6.1Zm8.52-.9c.02-2.32-1.08-3.59-2.98-3.6-1.71-.01-3.25,1.29-3.51,3.56l6.5.04Z"/>
        <path class="cls-3" d="m87.02,30.67c.22-.97,1.07-1.73,2.32-2.16l.02-.09c-.53-.5-.85-1.2-.65-2.09.21-.94,1.07-1.53,1.78-1.8l.02-.09c-.65-.76-1.16-2.03-.86-3.38.55-2.47,2.95-3.57,5.36-3.02.65.15,1.22.4,1.62.66l4.15.93-.33,1.47-2.44-.55c.45.64.66,1.58.45,2.54-.54,2.42-2.8,3.49-5.23,2.94-.58-.13-1.2-.41-1.68-.78-.51.25-.92.55-1.06,1.17-.16.72.21,1.34,1.81,1.69l2.31.52c2.76.62,3.97,1.76,3.55,3.63-.47,2.1-3.21,3.38-6.89,2.56-2.91-.65-4.68-2.19-4.24-4.13Zm9.09,1.42c.23-1.04-.52-1.59-2.08-1.94l-2.05-.46c-.45-.1-1.01-.27-1.51-.52-.98.38-1.49.97-1.64,1.62-.27,1.21.84,2.27,3,2.75,2.27.51,4.01-.28,4.28-1.46Zm.53-9.47c.37-1.64-.53-2.89-1.93-3.2-1.4-.31-2.75.41-3.12,2.07-.37,1.64.55,2.94,1.92,3.25,1.37.31,2.76-.47,3.13-2.12Z"/>
        <path class="cls-3" d="m101.47,27.68l3.22-6.6,1.85.9-3.11,6.37c-.95,1.94-.73,3.07.71,3.78,1.12.55,2.15.4,3.79-.32l3.6-7.38,1.85.9-5.08,10.41-1.53-.75.64-1.71-.06-.03c-1.57.64-3.03.86-4.53.12-2.31-1.13-2.65-3.05-1.36-5.7Z"/>
        <path class="cls-3" d="m118.48,28.64l1.3,1.1-.95,1.39.05.04c1.59-.08,3.11.07,4.38,1.15,1.96,1.66,1.82,3.61-.09,5.86l-4.74,5.6-1.57-1.33,4.58-5.41c1.39-1.65,1.47-2.79.24-3.84-.95-.81-2-.9-3.69-.8l-5.42,6.4-1.57-1.33,7.48-8.84Z"/>
      </g>
      <circle class="cls-3" cx="38.07" cy="46.73" r="2.43"/>
    </g>
  </g>
</svg>